# xmcd
#
# Track frame offsets:
#	150
#	12052
#	26645
#	42085
#	55916
#	66713
#	79936
#	91511
#	105681
#	121455
#
# Disc length: 1825 seconds
#
# Revision: 0
# Processed by: cddbd v1.5.2PL0 Copyright (c) Steve Scherf et al.
# Submitted via: EasyCDDAExtractor 10.5.1.1
#
DISCID=7b071f0a
DTITLE=The McGruders - Grace to Stand
DYEAR=1999
DGENRE=Christain Country
TTITLE0=The Marriage of the King
TTITLE1=God's Word Cannot Fail
TTITLE2=Heir to a Mansion
TTITLE3=Hold on to Jesus
TTITLE4=Let's Shake this House
TTITLE5=Land of Love
TTITLE6=He Keeps Blessing Me
TTITLE7=The Crimson Sea
TTITLE8=Grace to Stand
TTITLE9=He's Been Way to Good
EXTD=
EXTT0=
EXTT1=
EXTT2=
EXTT3=
EXTT4=
EXTT5=
EXTT6=
EXTT7=
EXTT8=
EXTT9=
PLAYORDER=
